<svg width="1375" height="1621" viewBox="0 0 1375 1621" fill="none" xmlns="http://www.w3.org/2000/svg">
<path fill-rule="evenodd" clip-rule="evenodd" d="M428.5 1238.44V1204.44H355.5C307.9 1204.44 300 1157.44 312.5 1121.94C325 1086.44 428.5 827.438 428.5 827.438H645L631 745.438H463L624.5 335.438L679 471.938L703 430.438H690.5C699.7 395.237 776 352.438 813 335.438C774.667 244.77 694.2 54.6357 679 19.4357C663.8 -15.7643 645.667 4.76907 638.5 19.4357C503.667 347.769 227.9 1021.64 203.5 1090.44C179.1 1159.24 127 1204.44 98.5 1204.44H0V1238.44H428.5ZM846.5 596.501C817.3 525.701 858.667 497.668 883 492.501L984 769.001C950.333 741.001 875.7 667.301 846.5 596.501ZM1094.5 1094L861.5 986.001L951 1208H905.5V1233.5H1182.5C1157.7 1136.7 1113.5 1100.17 1094.5 1094ZM1084.5 223.501C1074.1 255.501 1088.84 283.168 1097.5 293.001C1072 269.501 990 249.501 943 245.001C905.4 241.401 867 213.501 852.5 200.001C854.9 238.401 907.833 260.334 934 266.501C1004.4 287.301 1010.33 308.501 1004.5 316.501C934.9 301.301 904.169 315.168 897.503 324.001C947.105 330.401 958.835 345.668 958.5 352.501H897.503C845.105 349.301 802.336 374.168 787.502 387.001C807.503 389.401 808.501 400.001 806.5 405.001C772.5 399.401 737 429.001 723.5 444.501H741.5C675.1 490.501 645.5 583.668 639 624.501C654.6 618.101 653.5 630.834 651 638.001C641 699.201 650.167 754.168 656 774.001C696.8 852.801 748.667 891.834 769.5 901.501C759.901 881.901 765.501 870.001 769.5 866.501C797.501 914.901 1030.83 1038.33 1144 1094C1259.2 1165.2 1270.33 1262.33 1261.5 1302C1255.5 1236 1213 1191.5 1192.5 1177.5C1206.33 1193.83 1231.3 1252.9 1220.5 1358.5C1207 1490.5 1092.5 1502.5 1023.5 1507C954.5 1511.5 864 1480 827 1366C805.574 1299.99 816.34 1268.18 829.2 1230.18C838.547 1202.56 849.001 1171.67 849.001 1122C849.001 1027.6 775.667 998.668 739 996.001C777.5 1024 789.5 1068 789.5 1100.5C789.5 1133 759.5 1159.5 724.501 1189.5L723.289 1190.54C688.573 1220.29 648.948 1254.24 644.5 1318C640.9 1369.6 671.334 1388.17 687 1391C684.834 1370 681.8 1320.4 687 1290C692.2 1259.6 744.167 1225.33 769.5 1212C758.667 1233 734.501 1291.7 724.501 1358.5C712.001 1442 776.001 1515 849.001 1566.5C907.401 1607.7 1056.67 1599.67 1124 1590.5C1114 1619.3 1133.17 1621.83 1144 1619.5C1360 1503.5 1390 1318 1368 1197.5C1346 1077 1166.5 912.501 927.001 812.501C735.401 732.501 754.168 589.501 787.502 528.001C770.302 722.001 945.335 810.501 1035 830.501C1019.8 822.101 973.336 789.334 952.003 774.001C711.503 585.501 858.003 458.001 897.503 444.501C988.503 420.001 1056.5 460.001 1097.5 509.501C1130.3 549.101 1150.5 563.668 1156.5 566.001C1186.84 568.334 1249.3 569.301 1256.5 554.501C1263.7 539.701 1184.5 499.668 1144 481.501C1211.2 485.901 1287.67 532.001 1317.5 554.501L1333 541.501C1356.5 519.001 1265.5 458.001 1240 444.501C1219.6 433.701 1217.17 422.001 1218.5 417.501C1221.34 398.3 1201.78 377.514 1185.77 360.507C1176.36 350.498 1168.17 341.799 1166.5 335.501C1158.9 313.901 1140.67 298.168 1132.5 293.001C1104.9 279.401 1089 241.001 1084.5 223.501ZM1150.5 424.501C1144.5 413.701 1125 387.334 1116 375.501C1123.67 379.834 1143.3 391.801 1160.5 405.001C1182 421.501 1158 438.001 1150.5 424.501Z" fill="url(#paint0_linear_662_14)"/>
<defs>
<linearGradient id="paint0_linear_662_14" x1="0" y1="810.082" x2="1374.05" y2="810.083" gradientUnits="userSpaceOnUse">
<stop stop-color="#BA8335"/>
<stop offset="0.475" stop-color="#FAEFA7"/>
<stop offset="1" stop-color="#B9852C"/>
</linearGradient>
</defs>
</svg>
